<?xml version="1.0" encoding="iso-8859-1"?>
<!-- Generator: Adobe Illustrator 18.0.0, SVG Export Plug-In . SVG Version: 6.00 Build 0)  -->
<!DOCTYPE svg PUBLIC "-//W3C//DTD SVG 1.1//EN" "http://www.w3.org/Graphics/SVG/1.1/DTD/svg11.dtd">
<svg version="1.1" id="Capa_1" xmlns="http://www.w3.org/2000/svg" xmlns:xlink="http://www.w3.org/1999/xlink" x="0px" y="0px"
	 viewBox="0 0 490 490" style="enable-background:new 0 0 490 490;" xml:space="preserve">
<g>
	<g>
		<path d="M165.055,288.597c-61.648,0-111.803-50.154-111.803-111.802c0-61.646,50.155-111.801,111.803-111.801
			c61.646,0,111.801,50.154,111.801,111.801C276.856,238.444,226.701,288.597,165.055,288.597z M165.055,85
			c-50.618,0-91.798,41.18-91.798,91.796c0,50.617,41.18,91.797,91.798,91.797c50.617,0,91.797-41.18,91.797-91.797
			C256.852,126.18,215.672,85,165.055,85z"/>
	</g>
	<g>
		<path d="M165.005,341.928c-41.032,0-80.39-15.184-110.821-42.754c-67.477-61.136-72.639-165.77-11.505-233.247
			c31.241-34.484,75.863-54.262,122.422-54.262c41.034,0,80.392,15.185,110.826,42.758c32.69,29.613,51.889,70.185,54.062,114.24
			c2.172,44.055-12.941,86.319-42.56,119.005C256.189,322.15,211.566,341.928,165.005,341.928z M165.101,31.67
			c-40.922,0-80.141,17.382-107.597,47.688C3.776,138.661,8.312,230.619,67.615,284.349c26.746,24.23,61.333,37.574,97.391,37.574
			c40.924,0,80.142-17.381,107.599-47.688c26.03-28.727,39.314-65.871,37.404-104.588c-1.909-38.717-18.782-74.373-47.512-100.4
			C235.749,45.016,201.16,31.67,165.101,31.67z"/>
	</g>
	<g>
		<path d="M415.858,478.335c-17.762,0.001-35.579-6.325-49.748-19.16c-0.218-0.197-0.428-0.405-0.628-0.622L261.667,346.305
			c-3.751-4.056-3.504-10.384,0.552-14.135c4.057-3.748,10.384-3.503,14.135,0.552l103.501,111.91
			c22.135,19.74,56.211,17.96,76.159-4.054c19.947-22.018,18.366-56.104-3.461-76.183L329.044,270.93
			c-4.404-3.334-5.273-9.607-1.939-14.012c3.333-4.404,9.605-5.274,14.011-1.94l123.876,93.744c0.235,0.177,0.462,0.365,0.68,0.563
			c30.297,27.448,32.615,74.427,5.168,104.726C456.226,470.137,436.077,478.335,415.858,478.335z"/>
	</g>
</g>
<g>
</g>
<g>
</g>
<g>
</g>
<g>
</g>
<g>
</g>
<g>
</g>
<g>
</g>
<g>
</g>
<g>
</g>
<g>
</g>
<g>
</g>
<g>
</g>
<g>
</g>
<g>
</g>
<g>
</g>
</svg>
