<?xml version="1.0" encoding="iso-8859-1"?>
<!-- Generator: Adobe Illustrator 19.0.0, SVG Export Plug-In . SVG Version: 6.00 Build 0)  -->
<svg version="1.1" id="Capa_1" xmlns="http://www.w3.org/2000/svg" xmlns:xlink="http://www.w3.org/1999/xlink" x="0px" y="0px"
	 viewBox="0 0 512 512" style="enable-background:new 0 0 512 512;" xml:space="preserve">
<g>
	<g>
		<path d="M10.667,0C4.779,0,0,4.779,0,10.667V96c0,5.888,4.779,10.667,10.667,10.667c217.621,0,394.667,177.045,394.667,394.667
			c0,5.888,4.779,10.667,10.667,10.667h85.333c5.888,0,10.667-4.779,10.667-10.667C512,224.896,287.104,0,10.667,0z"/>
	</g>
</g>
<g>
	<g>
		<path d="M10.667,170.667C4.779,170.667,0,175.445,0,181.333v85.333c0,5.888,4.779,10.667,10.667,10.667
			c123.52,0,224,100.48,224,224c0,5.888,4.779,10.667,10.667,10.667h85.333c5.888,0,10.667-4.779,10.667-10.667
			C341.333,318.997,193.003,170.667,10.667,170.667z"/>
	</g>
</g>
<g>
	<g>
		<circle cx="74.667" cy="437.333" r="74.667"/>
	</g>
</g>
<g>
</g>
<g>
</g>
<g>
</g>
<g>
</g>
<g>
</g>
<g>
</g>
<g>
</g>
<g>
</g>
<g>
</g>
<g>
</g>
<g>
</g>
<g>
</g>
<g>
</g>
<g>
</g>
<g>
</g>
</svg>
